<!--
  Setpoint wordmark — exported directly from Figma.
  To update the brand name typography sitewide, replace this file. No code changes needed.
-->
<svg width="81" height="20" viewBox="0 0 81 20" fill="none" xmlns="http://www.w3.org/2000/svg">
<path d="M8.28125 5.3125C8.2339 4.79167 8.0232 4.38684 7.64915 4.09801C7.27983 3.80445 6.7519 3.65767 6.06534 3.65767C5.6108 3.65767 5.23201 3.71686 4.92898 3.83523C4.62595 3.9536 4.39868 4.11695 4.24716 4.32528C4.09565 4.52888 4.01752 4.76326 4.01279 5.02841C4.00332 5.24621 4.04593 5.43797 4.14063 5.60369C4.24006 5.76941 4.3821 5.91619 4.56676 6.04403C4.75616 6.16714 4.98343 6.27604 5.24858 6.37074C5.51373 6.46544 5.81203 6.5483 6.14347 6.61932L7.39347 6.90341C8.11317 7.05966 8.74764 7.26799 9.29688 7.52841C9.85086 7.78883 10.3149 8.09896 10.6889 8.45881C11.0677 8.81866 11.3542 9.23295 11.5483 9.7017C11.7424 10.1705 11.8419 10.696 11.8466 11.2784C11.8419 12.197 11.6099 12.9853 11.1506 13.6435C10.6913 14.3016 10.0308 14.8059 9.16904 15.1563C8.31203 15.5066 7.27746 15.6818 6.06534 15.6818C4.84849 15.6818 3.78788 15.4995 2.88352 15.1349C1.97917 14.7704 1.27604 14.2164 0.77415 13.473C0.272256 12.7296 0.0142066 11.7898 2.10106e-06 10.6534H3.36648C3.39489 11.1222 3.52036 11.5128 3.7429 11.8253C3.96544 12.1378 4.27084 12.3745 4.65909 12.5355C5.05209 12.6965 5.50663 12.777 6.02273 12.777C6.49621 12.777 6.89868 12.7131 7.23012 12.5852C7.56629 12.4574 7.82434 12.2798 8.00426 12.0526C8.18419 11.8253 8.27652 11.5649 8.28125 11.2713C8.27652 10.9967 8.19129 10.7623 8.02557 10.5682C7.85985 10.3693 7.60417 10.1989 7.25853 10.0568C6.91762 9.91004 6.48201 9.7751 5.95171 9.65199L4.43182 9.29688C3.17235 9.00805 2.1804 8.54167 1.45597 7.89773C0.731536 7.24905 0.371688 6.37311 0.376423 5.26989C0.371688 4.37027 0.613165 3.58191 1.10085 2.90483C1.58854 2.22775 2.26326 1.69981 3.125 1.32102C3.98674 0.942235 4.96923 0.752841 6.07245 0.752841C7.19934 0.752841 8.17709 0.944602 9.00568 1.32812C9.83902 1.70691 10.4853 2.23958 10.9446 2.92614C11.4039 3.61269 11.6383 4.40814 11.6477 5.3125H8.28125ZM18.3216 15.7031C17.1805 15.7031 16.1956 15.4782 15.367 15.0284C14.5432 14.5739 13.9087 13.9276 13.4636 13.0895C13.0233 12.2467 12.8031 11.2453 12.8031 10.0852C12.8031 8.95833 13.0257 7.97349 13.4707 7.13068C13.9158 6.28314 14.5432 5.625 15.3528 5.15625C16.1625 4.68277 17.1166 4.44602 18.2151 4.44602C18.9916 4.44602 19.7018 4.56676 20.3457 4.80824C20.9897 5.04972 21.546 5.4072 22.0148 5.88068C22.4835 6.35417 22.8481 6.93892 23.1085 7.63494C23.3689 8.32623 23.4992 9.11932 23.4992 10.0142V10.8807H14.0176V8.86364H20.2676C20.2629 8.49432 20.1753 8.16525 20.0048 7.87642C19.8344 7.5876 19.6 7.36269 19.3017 7.2017C19.0081 7.03599 18.6696 6.95313 18.2861 6.95313C17.8978 6.95313 17.5498 7.04072 17.242 7.21591C16.9343 7.38636 16.6904 7.62074 16.5105 7.91903C16.3306 8.2126 16.2359 8.5464 16.2264 8.92045V10.973C16.2264 11.4181 16.314 11.8087 16.4892 12.1449C16.6644 12.4763 16.913 12.7344 17.2349 12.919C17.5569 13.1037 17.9404 13.196 18.3855 13.196C18.6933 13.196 18.9726 13.1534 19.2236 13.0682C19.4745 12.983 19.69 12.8575 19.8699 12.6918C20.0498 12.526 20.1848 12.3224 20.2747 12.081L23.4636 12.1733C23.3311 12.8883 23.0399 13.5109 22.5901 14.0412C22.145 14.5668 21.5602 14.9763 20.8358 15.2699C20.1114 15.5587 19.2733 15.7031 18.3216 15.7031ZM31.0306 4.58807V7.14489H24.1485V4.58807H31.0306ZM25.5903 1.97443H29.0633V12.0668C29.0633 12.2798 29.0964 12.4527 29.1627 12.5852C29.2337 12.7131 29.3355 12.8054 29.4681 12.8622C29.6007 12.9143 29.7593 12.9403 29.944 12.9403C30.0765 12.9403 30.2162 12.9285 30.363 12.9048C30.5145 12.8764 30.6282 12.8527 30.7039 12.8338L31.2295 15.3409C31.0638 15.3883 30.8294 15.4474 30.5264 15.5185C30.2281 15.5895 29.8706 15.6345 29.4539 15.6534C28.6395 15.6913 27.9411 15.5966 27.3587 15.3693C26.7811 15.1373 26.3384 14.7775 26.0306 14.2898C25.7276 13.8021 25.5808 13.1889 25.5903 12.4503V1.97443ZM32.4026 19.5881V4.58807H35.8401V6.45597H35.9467C36.0887 6.12453 36.2899 5.80492 36.5504 5.49716C36.8155 5.18939 37.1517 4.93845 37.5589 4.74432C37.9708 4.54546 38.4632 4.44602 39.0362 4.44602C39.7937 4.44602 40.5016 4.64489 41.1597 5.04261C41.8226 5.44034 42.3576 6.0535 42.7648 6.8821C43.172 7.7107 43.3756 8.76657 43.3756 10.0497C43.3756 11.2855 43.1791 12.3201 42.7862 13.1534C42.3979 13.9867 41.8723 14.6117 41.2094 15.0284C40.5513 15.4451 39.8198 15.6534 39.0148 15.6534C38.4656 15.6534 37.9898 15.5634 37.5873 15.3835C37.1848 15.2036 36.8463 14.9669 36.5717 14.6733C36.3018 14.3797 36.0934 14.0649 35.9467 13.7287H35.8756V19.5881H32.4026ZM35.8046 10.0426C35.8046 10.6297 35.8827 11.1411 36.039 11.5767C36.2 12.0123 36.4296 12.3509 36.7279 12.5923C37.0309 12.8291 37.3932 12.9474 37.8146 12.9474C38.2407 12.9474 38.6029 12.8291 38.9012 12.5923C39.1995 12.3509 39.4244 12.0123 39.5759 11.5767C39.7322 11.1411 39.8103 10.6297 39.8103 10.0426C39.8103 9.45549 39.7322 8.9465 39.5759 8.51563C39.4244 8.08475 39.1995 7.75095 38.9012 7.5142C38.6076 7.27746 38.2454 7.15909 37.8146 7.15909C37.3884 7.15909 37.0262 7.2751 36.7279 7.5071C36.4296 7.73911 36.2 8.07055 36.039 8.50142C35.8827 8.93229 35.8046 9.44602 35.8046 10.0426ZM49.8879 15.7031C48.7421 15.7031 47.7572 15.4688 46.9334 15C46.1143 14.5265 45.4822 13.8684 45.0371 13.0256C44.5967 12.178 44.3766 11.1955 44.3766 10.0781C44.3766 8.95597 44.5967 7.97349 45.0371 7.13068C45.4822 6.28314 46.1143 5.625 46.9334 5.15625C47.7572 4.68277 48.7421 4.44602 49.8879 4.44602C51.0338 4.44602 52.0162 4.68277 52.8354 5.15625C53.6592 5.625 54.2913 6.28314 54.7317 7.13068C55.1768 7.97349 55.3993 8.95597 55.3993 10.0781C55.3993 11.1955 55.1768 12.178 54.7317 13.0256C54.2913 13.8684 53.6592 14.5265 52.8354 15C52.0162 15.4688 51.0338 15.7031 49.8879 15.7031ZM49.9092 13.0824C50.3259 13.0824 50.6786 12.9545 50.9675 12.6989C51.2563 12.4432 51.4765 12.0881 51.628 11.6335C51.7842 11.179 51.8624 10.6534 51.8624 10.0568C51.8624 9.45076 51.7842 8.92046 51.628 8.46591C51.4765 8.01136 51.2563 7.65625 50.9675 7.40057C50.6786 7.14489 50.3259 7.01705 49.9092 7.01705C49.4784 7.01705 49.1138 7.14489 48.8155 7.40057C48.5219 7.65625 48.297 8.01136 48.1408 8.46591C47.9893 8.92046 47.9135 9.45076 47.9135 10.0568C47.9135 10.6534 47.9893 11.179 48.1408 11.6335C48.297 12.0881 48.5219 12.4432 48.8155 12.6989C49.1138 12.9545 49.4784 13.0824 49.9092 13.0824ZM56.7784 15.4972V4.58807H60.2514V15.4972H56.7784ZM58.5185 3.31676C58.0308 3.31676 57.6117 3.15578 57.2614 2.83381C56.911 2.5071 56.7358 2.11411 56.7358 1.65483C56.7358 1.20028 56.911 0.812027 57.2614 0.490057C57.6117 0.163352 58.0308 0 58.5185 0C59.0109 0 59.4299 0.163352 59.7756 0.490057C60.1259 0.812027 60.3011 1.20028 60.3011 1.65483C60.3011 2.11411 60.1259 2.5071 59.7756 2.83381C59.4299 3.15578 59.0109 3.31676 58.5185 3.31676ZM65.535 9.27557V15.4972H62.062V4.58807H65.3646V6.59091H65.4853C65.7268 5.9233 66.1387 5.4001 66.7211 5.02131C67.3035 4.63778 67.9971 4.44602 68.8021 4.44602C69.5691 4.44602 70.2344 4.61885 70.7978 4.96449C71.366 5.3054 71.8063 5.78362 72.1188 6.39915C72.4361 7.00994 72.5923 7.72491 72.5876 8.54403V15.4972H69.1146V9.22585C69.1193 8.61979 68.9654 8.14631 68.6529 7.8054C68.3451 7.46449 67.9166 7.29403 67.3674 7.29403C67.0028 7.29403 66.6808 7.37453 66.4015 7.53551C66.1269 7.69176 65.9138 7.91667 65.7623 8.21023C65.6155 8.50379 65.5397 8.8589 65.535 9.27557ZM80.4955 4.58807V7.14489H73.6134V4.58807H80.4955ZM75.0551 1.97443H78.5281V12.0668C78.5281 12.2798 78.5613 12.4527 78.6276 12.5852C78.6986 12.7131 78.8004 12.8054 78.933 12.8622C79.0655 12.9143 79.2241 12.9403 79.4088 12.9403C79.5414 12.9403 79.6811 12.9285 79.8278 12.9048C79.9794 12.8764 80.093 12.8527 80.1687 12.8338L80.6943 15.3409C80.5286 15.3883 80.2942 15.4474 79.9912 15.5185C79.6929 15.5895 79.3354 15.6345 78.9187 15.6534C78.1044 15.6913 77.406 15.5966 76.8236 15.3693C76.2459 15.1373 75.8032 14.7775 75.4955 14.2898C75.1924 13.8021 75.0456 13.1889 75.0551 12.4503V1.97443Z" fill="#122A1C"/>
</svg>
